<svg width="199" height="61" viewBox="0 0 199 61" fill="none" xmlns="http://www.w3.org/2000/svg">
<g clip-path="url(#clip0_46_725)">
<path d="M32.4177 28.4402V33.8668C32.4177 30.8936 30.0487 28.486 27.0759 28.4402H32.4177Z" fill="#F9F3DC"/>
<path d="M27.5574 39.2934H26.4416C26.4416 39.2934 26.3728 39.2782 26.3346 39.2705H26.4416C23.721 39.003 21.5813 36.6718 21.5736 33.8744C21.5736 30.9089 23.9732 28.5013 26.9154 28.4631H5.42588C2.43783 28.4631 0 30.8936 0 33.8897C0 36.8858 2.43018 39.3164 5.42588 39.3164H13.366L1.58955 51.7365C-0.534946 53.8384 -0.51202 57.2854 1.58955 59.4102C3.69113 61.535 7.13771 61.535 9.26221 59.4102L21.5736 46.4551V55.5734C21.5736 58.5618 24.0038 61 26.9995 61C29.9952 61 32.4254 58.5695 32.4254 55.5734V33.8974C32.4254 36.7024 30.3009 39.0336 27.5574 39.3011V39.2934Z" fill="#F9F3DC"/>
<path d="M54.0144 33.8439C54.0144 36.8323 51.5842 39.2705 48.5885 39.2705H27.5498C30.2933 39.003 32.4178 36.6718 32.4178 33.8668C32.4178 31.0618 30.0488 28.486 27.076 28.4402H26.8926C23.9428 28.4784 21.5508 30.8936 21.5508 33.8668V12.145C21.5508 9.13356 23.981 6.71832 26.9767 6.71832C29.9724 6.71832 32.4025 9.14885 32.4025 12.145V21.2403L44.714 8.28517C46.8385 6.16038 50.285 6.16038 52.3866 8.28517C54.5111 10.41 54.5111 13.857 52.3866 15.9589L40.6102 28.379H48.5503C51.5383 28.379 53.9762 30.8095 53.9762 33.8057L54.0144 33.8439Z" fill="#F9F3DC"/>
<path d="M27.5574 39.2705C27.374 39.2705 27.1829 39.2934 26.9995 39.2934C26.8161 39.2934 26.6251 39.2934 26.4417 39.2705H27.5574Z" fill="#F9F3DC"/>
<path d="M67.319 4.54003H71.9196L71.7973 7.57437H71.8202C72.3552 5.67886 73.5321 4.3566 75.6948 4.3566C77.8575 4.3566 79.2178 5.42664 79.5082 7.42915H79.5311C80.0049 5.61772 81.2659 4.3566 83.4056 4.3566C85.5454 4.3566 87.2802 5.92344 87.2802 8.70555V16.0277H82.6796V9.85967C82.6796 8.78963 82.1829 8.18582 81.2964 8.18582C80.4099 8.18582 79.5464 8.97306 79.5464 10.6163V16.02H74.9459V9.85203C74.9459 8.78198 74.495 8.17817 73.5626 8.17817C72.6303 8.17817 71.8737 9.00364 71.8737 10.6775V16.02H67.2732V4.54003H67.3114H67.319Z" fill="#F9F3DC"/>
<path d="M89.4888 4.54003H94.0893L93.9441 7.7578H93.9823C94.4561 5.71708 95.5489 4.3566 97.7575 4.3566C99.9661 4.3566 101.349 5.83937 101.349 8.93485C101.349 12.0303 101.288 10.9374 101.227 11.5947H97.2684C97.3066 11.0596 97.3066 10.4405 97.3066 10.089C97.3066 8.7667 96.8099 8.23168 95.9693 8.23168C95.1286 8.23168 94.0893 9.17943 94.0893 11.2201V16.0506H89.4888V4.55532V4.53239V4.54003Z" fill="#F9F3DC"/>
<path d="M111.636 8.74376C111.636 7.68901 110.978 7.15399 109.863 7.15399C108.747 7.15399 108.09 7.66608 107.883 9.0342H111.636V8.72848V8.7514V8.74376ZM115.579 10.9297H107.845C107.967 12.5806 108.632 13.1997 109.886 13.1997C111.139 13.1997 111.574 12.787 111.659 11.7934H115.594C115.556 14.5143 113.531 16.1882 109.695 16.1882C105.858 16.1882 103.222 13.8188 103.222 10.3718C103.222 6.92469 105.721 4.32602 109.74 4.32602C113.76 4.32602 115.594 6.13745 115.594 9.83673V10.9068L115.571 10.9297H115.579Z" fill="#F9F3DC"/>
<path d="M117.948 0H121.822L122.61 1.88022H122.648L123.435 0H127.309L124.956 3.50821H120.256L117.902 0H117.94H117.948ZM117.207 13.2838L122.136 8.04824V8.01002H117.39V4.54768H127.867V7.25335L122.9 12.5577L127.867 12.5806V16.043H117.207V13.2991V13.2838Z" fill="#F9F3DC"/>
<path d="M137.542 11.8775V11.5717H135.173C134.409 11.5717 133.958 11.9462 133.958 12.4966C133.958 13.0469 134.516 13.5895 135.441 13.5895C136.365 13.5895 137.542 12.9704 137.542 11.8545V11.8775ZM129.77 12.8481C129.77 11.0367 131.008 9.71445 133.851 9.71445H137.519V8.86606C137.519 7.79602 136.961 7.33743 135.746 7.33743C134.531 7.33743 134.157 7.8113 134.157 8.59855C134.157 9.38579 134.157 8.82784 134.18 9.07242H130.16C130.122 8.84313 130.099 8.56033 130.099 8.30811C130.099 5.87758 132.04 4.34895 135.975 4.34895C139.911 4.34895 142.12 6.20624 142.12 9.25586V16.02H137.519C137.58 15.5232 137.664 14.5526 137.664 13.8341H137.641C137.29 15.2787 136.159 16.2035 134.011 16.2035C131.864 16.2035 129.762 14.843 129.762 12.8634V12.8405L129.77 12.8481Z" fill="#F9F3DC"/>
<path d="M67.7699 30.6949H69.4817C69.4817 32.2235 70.4064 33.1254 72.7983 33.1254C75.1903 33.1254 76.3061 32.407 76.3061 31.1688C76.3061 29.9306 76.1609 30.2592 75.5877 29.9688C75.0528 29.7242 73.8377 29.579 72.4315 29.4338C70.5516 29.2656 69.3976 29.044 68.7175 28.5242C68.0755 28.0504 67.7699 27.2249 67.7699 26.3765C67.7699 24.2135 69.7492 22.8072 72.8213 22.8072C75.8934 22.8072 77.7122 24.3129 77.7122 26.8886H75.9775C75.9545 25.1765 74.9228 24.374 72.8824 24.374C70.842 24.374 69.6269 25.0925 69.6269 26.2313C69.6269 27.3701 69.688 27.2631 70.3682 27.5306C70.926 27.7599 72.0571 27.9052 73.5855 28.0657C75.3814 28.2491 76.2679 28.4172 77.0473 28.8529C77.8116 29.2886 78.1784 30.1752 78.1784 31.0388C78.1784 33.2859 76.3213 34.6464 72.8366 34.6464C69.3518 34.6464 67.7622 32.835 67.7622 30.6261V30.6873L67.7699 30.6949Z" fill="#F9F3DC"/>
<path d="M90.2681 28.8147C90.2681 26.216 88.7397 24.5269 86.3095 24.5269C83.8793 24.5269 82.3509 26.2007 82.3509 28.8147C82.3509 31.4286 83.8793 33.0413 86.3095 33.0413C88.7397 33.0413 90.2681 31.3904 90.2681 28.8147ZM80.4939 28.8147C80.4939 25.1842 82.7407 22.853 86.3095 22.853C89.8784 22.853 92.1252 25.1842 92.1252 28.8147C92.1252 32.4452 89.8784 34.7381 86.3095 34.7381C82.7407 34.7381 80.4939 32.4299 80.4939 28.8147Z" fill="#F9F3DC"/>
<path d="M95.0369 18.42H96.8939V34.5318H95.0369V18.42ZM100.402 23.0441H102.259V34.5318H100.402V23.0441ZM100.318 19.2225H102.32V21.5766H100.318V19.2225Z" fill="#F9F3DC"/>
<path d="M115.082 28.9217V28.3408C115.082 26.0097 113.47 24.5269 110.94 24.5269C108.41 24.5269 107.004 26.323 107.004 28.7153C107.004 31.1076 108.533 33.049 110.902 33.049C113.271 33.049 115.067 31.4363 115.067 28.9217H115.09H115.082ZM105.163 28.7153C105.163 25.2912 107.31 22.8607 110.795 22.8607C114.28 22.8607 114.654 23.8314 115.082 25.36H115.105V18.4276H116.962V34.5394H115.105C115.166 33.5076 115.189 32.4987 115.227 31.4669H115.189C114.753 33.4464 113.21 34.7228 110.65 34.7228C108.09 34.7228 105.186 32.3076 105.186 28.723H105.163V28.7153Z" fill="#F9F3DC"/>
<path d="M128.738 29.7242V29.5561H124.222C122.342 29.5561 121.601 30.114 121.601 31.2299C121.601 32.3458 122.671 33.1254 124.489 33.1254C127.088 33.1254 128.738 31.8032 128.738 29.7013V29.7242ZM119.843 31.2299C119.843 29.6019 120.974 28.1956 124.054 28.1956H128.738V27.3472C128.738 25.3676 127.584 24.4199 125.231 24.4199C122.877 24.4199 121.952 25.2071 121.952 26.774C121.952 28.3408 121.952 27.0033 121.975 27.1867H120.263C120.24 27.0185 120.225 26.6899 120.225 26.4835C120.225 24.1906 122.181 22.8301 125.299 22.8301C128.417 22.8301 130.618 24.5039 130.618 27.5153V34.5318H128.761C128.784 33.9967 128.822 32.9191 128.861 31.8108H128.838C128.448 33.584 127.004 34.7228 124.138 34.7228C121.272 34.7228 119.889 33.4006 119.889 31.2376H119.851L119.843 31.2299Z" fill="#F9F3DC"/>
<path d="M133.744 23.0441H135.601L135.563 26.3612H135.586C136.121 24.3587 137.298 22.853 139.774 22.853C142.25 22.853 143.732 24.5651 143.732 27.3472C143.732 30.1293 143.671 28.9752 143.61 29.3879H141.921C141.959 29.0363 142.005 28.4631 142.005 27.737C142.005 25.6122 141.218 24.5192 139.323 24.5192C137.428 24.5192 135.609 26.56 135.609 29.4261V34.5241H133.752V23.0365L133.744 23.0441Z" fill="#F9F3DC"/>
<path d="M146.514 23.0441H148.371L148.333 26.1396H148.356C148.975 24.1371 150.58 22.8607 153.323 22.8607C156.067 22.8607 158.13 24.611 158.13 27.3548V34.5318H156.273V27.7446C156.273 25.788 155.157 24.5269 152.681 24.5269C150.205 24.5269 148.348 26.1396 148.348 28.8758V34.5241H146.491V23.0365H146.514V23.0441Z" fill="#F9F3DC"/>
<path d="M170.579 28.8147C170.579 26.216 169.051 24.5269 166.62 24.5269C164.19 24.5269 162.662 26.2007 162.662 28.8147C162.662 31.4286 164.19 33.0413 166.62 33.0413C169.051 33.0413 170.579 31.3904 170.579 28.8147ZM160.805 28.8147C160.805 25.1842 163.051 22.853 166.62 22.853C170.189 22.853 172.436 25.1842 172.436 28.8147C172.436 32.4452 170.189 34.7381 166.62 34.7381C163.051 34.7381 160.805 32.4299 160.805 28.8147Z" fill="#F9F3DC"/>
<path d="M174.606 30.6949H176.318C176.318 32.2235 177.243 33.1254 179.635 33.1254C182.027 33.1254 183.142 32.407 183.142 31.1688C183.142 29.9306 182.997 30.2592 182.424 29.9688C181.889 29.7242 180.674 29.579 179.268 29.4338C177.388 29.2656 176.234 29.044 175.554 28.5242C174.935 28.0504 174.606 27.2249 174.606 26.3765C174.606 24.2135 176.586 22.8072 179.658 22.8072C182.73 22.8072 184.549 24.3129 184.549 26.8886H182.837C182.814 25.1765 181.782 24.374 179.742 24.374C177.701 24.374 176.486 25.0925 176.486 26.2313C176.486 27.3701 176.547 27.2631 177.228 27.5306C177.785 27.7599 178.916 27.9052 180.445 28.0657C182.241 28.2491 183.127 28.4172 183.907 28.8529C184.671 29.2886 185.038 30.1752 185.038 31.0388C185.038 33.2859 183.181 34.6464 179.696 34.6464C176.211 34.6464 174.622 32.835 174.622 30.6261L174.599 30.6873L174.606 30.6949Z" fill="#F9F3DC"/>
<path d="M188.4 30.3204V24.6721H186.505V23.0441H188.034C188.408 23.0441 188.546 22.8607 188.591 22.2569L188.675 20.4454H190.265V23.0441H194.43V24.6721H190.265V30.1981C190.265 31.9484 190.823 32.9802 192.558 32.9802C194.292 32.9802 194.086 32.835 194.354 32.7509V34.3407C194.002 34.4859 193.322 34.6311 192.397 34.6311C189.615 34.6311 188.416 32.8579 188.416 30.3204H188.4Z" fill="#F9F3DC"/>
<path d="M197.082 23.0441H198.939V34.5318H197.082V23.0441ZM197.005 19.2225H199.008V21.5766H197.005V19.2225Z" fill="#F9F3DC"/>
<path d="M110.13 46.4704L108.518 46.5544L108.625 48.6487L110.321 48.5569C111.101 48.5187 111.483 48.1442 111.445 47.4563C111.414 46.799 110.979 46.4245 110.123 46.4704H110.13Z" fill="#F9F3DC"/>
<path d="M134.768 45.0793C133.591 45.1405 132.743 46.0576 132.819 47.5404C132.896 49.0461 133.836 49.8945 135.02 49.8334C136.197 49.7722 137.046 48.8321 136.969 47.3264C136.893 45.8436 135.953 45.0182 134.776 45.0793H134.768Z" fill="#F9F3DC"/>
<path d="M118.277 46.1035L117.352 49.4206L119.568 49.306L118.3 46.1035H118.277Z" fill="#F9F3DC"/>
<path d="M103.382 47.6015C103.352 47.0436 102.962 46.7226 102.16 46.7684L100.746 46.8449L100.838 48.5875L102.389 48.5034C103.061 48.4729 103.413 48.1519 103.39 47.6015H103.382Z" fill="#F9F3DC"/>
<path d="M93.4704 47.2194C92.2935 47.2805 91.4452 48.1977 91.5216 49.6805C91.598 51.1862 92.538 52.0346 93.7225 51.9734C94.8994 51.9123 95.7477 50.9722 95.6713 49.4665C95.5949 47.9837 94.6549 47.1583 93.478 47.2194H93.4704Z" fill="#F9F3DC"/>
<path d="M81.0291 48.0296L80.1121 51.3543L82.3206 51.2397L81.052 48.0296H81.0291Z" fill="#F9F3DC"/>
<path d="M102.511 49.627L100.891 49.7111L100.99 51.6066L102.656 51.5225C103.336 51.4843 103.711 51.0792 103.68 50.4448C103.65 49.9251 103.229 49.5964 102.511 49.627Z" fill="#F9F3DC"/>
<path d="M150.725 44.422L149.808 47.7391L152.016 47.6245L150.748 44.422H150.725Z" fill="#F9F3DC"/>
<path d="M186.49 44.5749C186.222 39.3699 181.782 35.3725 176.578 35.64L69.5813 41.1813C64.377 41.4488 60.3802 45.8895 60.6477 51.0945C60.9152 56.2995 65.3552 60.2968 70.5595 60.0293L177.556 54.488C182.761 54.2205 186.757 49.7799 186.49 44.5749ZM70.2003 54.5492L70.1392 53.3263L73.8226 48.3735V48.3506L69.9558 48.5493L69.8793 47.0895L76.0312 46.7685L76.1 48.106L72.4853 52.9441V52.9671L76.3063 52.7683L76.3827 54.2282L70.1927 54.5492H70.2003ZM83.3523 53.8689L82.7639 52.3785L79.7835 52.5314L79.3555 54.0753L77.4526 54.1747L79.944 46.5697L82.2519 46.4474L85.515 53.7543L83.3523 53.8689ZM93.7914 53.4409C91.537 53.5556 89.7182 52.2104 89.5883 49.7722C89.466 47.3799 91.1396 45.8742 93.394 45.7596C95.6485 45.6449 97.4673 46.9672 97.5895 49.3595C97.7195 51.7976 96.0458 53.3263 93.7914 53.4409ZM102.725 52.86L99.202 53.0435L98.8199 45.5838L102.106 45.4156C103.864 45.3239 104.941 45.9965 105.002 47.2194C105.048 48.0449 104.681 48.6563 104.017 48.8703C104.827 49.0232 105.407 49.5964 105.453 50.5365C105.522 51.9047 104.605 52.7607 102.725 52.86ZM111.582 52.4015L111.491 50.5977C111.452 49.9174 111.192 49.6346 110.489 49.6728L108.686 49.7646L108.831 52.539L106.974 52.6384L106.592 45.1787L110.069 44.9952C112.041 44.8959 113.149 45.6526 113.218 47.0589C113.263 48.0143 112.889 48.6334 112.201 48.8703V48.8932C112.95 49.0232 113.309 49.5964 113.348 50.4372L113.447 52.2944L111.59 52.3938L111.582 52.4015ZM120.6 51.9352L120.011 50.4448L117.031 50.5977L116.603 52.1416L114.7 52.2409L117.192 44.636L119.507 44.5137L122.77 51.8206L120.608 51.9352H120.6ZM123.802 51.7747L123.741 50.5518L127.424 45.599V45.5761L123.557 45.7748L123.481 44.315L129.633 43.994L129.702 45.3315L126.087 50.1697V50.1926L129.908 49.9939L129.984 51.4537L123.794 51.7747H123.802ZM135.089 51.3008C132.835 51.4155 131.016 50.0703 130.886 47.6321C130.764 45.2398 132.437 43.7341 134.692 43.6195C136.946 43.5048 138.765 44.8271 138.887 47.2194C139.017 49.6576 137.344 51.1862 135.089 51.3008ZM142.525 50.804L139.308 43.4972L141.425 43.3902L143.717 49.092H143.74L145.391 43.1915L147.294 43.0921L144.833 50.697L142.525 50.8193V50.804ZM153.048 50.2537L152.46 48.7633L149.479 48.9162L149.051 50.4601L147.148 50.5595L149.64 42.9545L151.948 42.8322L155.211 50.1391L153.048 50.2537ZM161.577 49.8181L157.893 44.2156H157.878L158.222 49.9939L156.479 50.0856L156.09 42.6259L158.764 42.4883L161.944 47.3493H161.951L161.638 42.3431L163.38 42.2513L163.77 49.7111L161.569 49.8257L161.577 49.8181ZM168.141 49.5888C166.216 49.6881 165.23 48.6792 165.13 46.8143C165.107 46.4398 165.107 45.9659 165.107 45.7137L166.712 45.6296C166.728 45.8666 166.735 46.3099 166.75 46.6462C166.796 47.5863 167.178 48.1671 167.996 48.1289C168.684 48.0907 169.158 47.5022 169.097 46.3099L168.875 41.9609L170.732 41.8615L170.946 46.0347C171.061 48.3124 170.037 49.4894 168.134 49.5888H168.141ZM172.665 49.2372L172.276 41.7775L177.556 41.5023L177.633 42.9622L174.209 43.138L174.293 44.8118L176.945 44.6742L177.006 45.8054L174.354 45.943L174.446 47.6627L177.969 47.4793L178.045 48.9391L172.665 49.2219V49.2372Z" fill="#F9F3DC"/>
</g>
<defs>
<clipPath id="clip0_46_725">
<rect width="199" height="61" fill="white"/>
</clipPath>
</defs>
</svg>
